<svg height="512pt" viewBox="0 0 512 512" width="512pt" xmlns="http://www.w3.org/2000/svg"><path d="m352 82.398438v127.519531c-32.242188-4.078125-63.917969-6.160157-95.601562-6.160157-31.917969 0-63.839844 2.082032-96.398438 6.242188v-127.601562c0-11.4375 6.078125-21.917969 15.839844-27.679688l77.917968-45.359375c1.523438-.078125 2.960938-.078125 4.484376 0l.078124.078125 77.839844 45.28125c9.761719 5.761719 15.839844 16.242188 15.839844 27.679688zm0 0" fill="#e3ddd5"/><path d="m392 216v13.597656c0 21.441406-20.320312 36.160156-40 30.960938-1.917969-.480469-3.761719-1.121094-5.601562-2l-24.15625-11.359375c-16.960938-8-33.601563-12.878907-50.242188-14.5625-10.640625-1.117188-21.277344-.878907-32 .5625-14.160156 1.917969-28.398438 6.160156-42.878906 12.558593l-32.160156 14.238282c-1.601563.722656-3.28125 1.28125-4.960938 1.679687-19.679688 5.363281-40-9.519531-40-30.957031v-14.722656l7.761719-1.28125c10.800781-1.757813 21.597656-3.359375 32.238281-4.71875 32.5625-4.160156 64.480469-6.238282 96.402344-6.238282 44.71875 0 89.355468 4.082032 135.597656 12.242188zm0 0" fill="#f40e34"/><path d="m72 224h48v56c-15.519531 0-27.519531-6.242188-35.601562-16.402344-8.160157-10.15625-12.398438-24.078125-12.398438-39.597656zm0 0" fill="#423530"/><path d="m120 280v120h-48c-32.640625 0-59.601562 24.398438-63.519531 56h-.480469v-48c0-44.160156 35.839844-80 80-80-13.28125 0-25.28125-5.359375-33.921875-14.082031-8.71875-8.636719-14.082031-20.640625-14.082031-33.917969zm0 0" fill="#423530"/><path d="m346.398438 258.558594-24.15625-11.359375c-16.960938-8-33.601563-12.878907-50.242188-14.558594-10.640625-1.121094-21.277344-.882813-32 .558594-14.160156 1.921875-28.398438 6.160156-42.878906 12.558593l-32.160156 14.242188c-1.601563.71875-3.28125 1.277344-4.960938 1.679688v106.320312l34.160156-34.160156c3.761719-3.761719 8.800782-5.839844 14.160156-5.839844h95.359376c5.363281 0 10.402343 2.078125 14.160156 5.839844l34.160156 34.160156v-107.441406c-1.917969-.480469-3.761719-1.117188-5.601562-2zm0 0" fill="#ffb398"/><path d="m425.917969 257.917969c-8.636719 8.722656-20.640625 14.082031-33.917969 14.082031v-48h48c0 13.277344-5.359375 25.28125-14.082031 33.917969zm0 0" fill="#423530"/><path d="m504 416v40h-.480469c-3.921875-31.601562-30.878906-56-63.519531-56h-48v-128h80c0 15.519531-6.242188 29.4375-16.402344 39.597656s-24.078125 16.402344-39.597656 16.402344c24.320312 0 46.320312 9.839844 62.238281 25.757812 15.921875 15.921876 25.761719 37.921876 25.761719 62.242188zm0 0" fill="#423530"/><path d="m392 456c0 13.277344-5.359375 25.277344-14.082031 33.917969-8.636719 8.722656-20.640625 14.082031-33.917969 14.082031h-176c-26.480469 0-48-21.519531-48-48-56 0 0-56 0-56v-169.28125c0 21.441406 20.320312 36.320312 40 30.960938v106.320312l34.160156-34.160156c3.761719-3.761719 8.800782-5.839844 14.160156-5.839844h95.359376c5.359374 0 10.402343 2.078125 14.160156 5.839844l34.160156 34.160156v-107.441406c19.679688 5.203125 40-9.519532 40-30.957032v170.398438s56 56 0 56zm0 0" fill="#534741"/><path d="m296 312c0 8.800781-7.199219 16-16 16h-48c-4.402344 0-8.402344-1.761719-11.28125-4.71875-2.960938-2.878906-4.71875-6.878906-4.71875-11.28125 0-8.800781 7.199219-16 16-16h8v-62.800781c10.71875-1.4375 21.359375-1.679688 32-.558594v63.359375h8c4.398438 0 8.398438 1.757812 11.277344 4.71875 2.960937 2.878906 4.722656 6.878906 4.722656 11.28125zm0 0" fill="#f26038"/><path d="m32 414.078125v17.921875h-15.441406c4-6.878906 9.199218-13.039062 15.441406-17.921875zm0 0" fill="#ffd422"/><path d="m80 400v32h-24v-29.921875c5.121094-1.359375 10.480469-2.078125 16-2.078125zm0 0" fill="#ffd422"/><path d="m120 400s-8.800781 8.800781-16 19.519531v-19.519531zm0 0" fill="#ffd422"/><path d="m8.480469 456h23.519531v24h-24v-16c0-2.71875.160156-5.359375.480469-8zm0 0" fill="#ffd422"/><path d="m56 456h24v24h-24zm0 0" fill="#ffd422"/><path d="m120 456c0 8.800781 2.320312 16.960938 6.480469 24h-22.480469v-26.398438c3.839844 1.519532 9.039062 2.398438 16 2.398438zm0 0" fill="#ffd422"/><path d="m168 504h-8v-.71875c2.558594.476562 5.28125.71875 8 .71875zm0 0" fill="#ffd422"/><path d="m120 456h-16v-2.398438c3.839844 1.519532 9.039062 2.398438 16 2.398438zm0 0" fill="#666"/><path d="m126.480469 480h-22.480469v-26.398438c-10.082031-4-10.402344-12.480468-6.722656-21.601562 1.601562-4.160156 4.082031-8.480469 6.722656-12.480469v-19.519531h-24v32h-24v-29.921875c-8.878906 2.238281-17.039062 6.320313-24 12v17.921875h-15.441406c-4.238282 7.199219-7.039063 15.277344-8.078125 24h23.519531v24h-24v24h152v-.71875c-14.320312-2.402344-26.558594-11.121094-33.519531-23.28125zm-70.480469 0v-24h24v24zm0 0" fill="#666"/><path d="m504 464v40h-160c13.28125 0 25.28125-5.359375 33.917969-14.082031 8.722656-8.636719 14.082031-20.640625 14.082031-33.917969 56 0 0-56 0-56h48c32.640625 0 59.601562 24.398438 63.519531 56 .320313 2.640625.480469 5.28125.480469 8zm0 0" fill="#ffd422"/><path d="m216 384h8c8.835938 0 16-7.164062 16-16h32c0 8.835938 7.164062 16 16 16h8c-22.089844 22.089844-57.910156 22.089844-80 0zm0 0" fill="#f40e34"/><path d="m168 312c0 13.253906-10.746094 24-24 24s-24-10.746094-24-24 10.746094-24 24-24 24 10.746094 24 24zm0 0" fill="#f40e34"/><path d="m392 312c0 13.253906-10.746094 24-24 24s-24-10.746094-24-24 10.746094-24 24-24 24 10.746094 24 24zm0 0" fill="#f40e34"/><path d="m253.757812 9.359375-77.917968 45.359375c-9.761719 5.761719-15.839844 16.242188-15.839844 27.679688v127.601562c-10.640625 1.359375-21.441406 2.960938-32.242188 4.71875l-7.757812 1.28125v-150.640625c0-.800781 0-1.679687.078125-2.480469.082031-.878906.242187-1.839844.402344-2.71875.320312-1.761718.796875-3.523437 1.359375-5.28125 3.601562-10.078125 12.242187-18 23.199218-20.480468l74-17.757813 28.082032-6.5625c2.160156-.476563 4.398437-.71875 6.636718-.71875zm0 0" fill="#1e81ce"/><path d="m392 65.359375v150.640625l-7.757812-1.28125c-10.800782-1.839844-21.601563-3.441406-32.242188-4.71875v-127.601562c0-11.4375-6.078125-21.917969-15.839844-27.679688l-77.839844-45.28125c2.640626 0 5.28125.320312 7.917969.960938l26.722657 6.242187 74.398437 17.519531c1.199219.320313 2.398437.640625 3.601563 1.121094.238281.078125.476562.160156.796874.238281.800782.320313 1.601563.71875 2.402344 1.117188 1.917969.882812 3.679688 2.003906 5.277344 3.28125.722656.558593 1.441406 1.121093 2.082031 1.757812 1.039063.882813 1.917969 1.84375 2.800781 2.882813.800782.960937 1.597657 2 2.320313 3.039062v.082032c.796875 1.117187 1.4375 2.316406 2 3.519531.558594 1.199219 1.117187 2.398437 1.519531 3.679687.558594 1.757813 1.039063 3.519532 1.359375 5.277344.160157.882812.320313 1.839844.402344 2.722656.078125.800782.078125 1.679688.078125 2.480469zm0 0" fill="#1e81ce"/><path d="m352 503.28125v.71875h152v-24h-24v-24h23.519531c-1.039062-8.722656-3.839843-16.800781-8.082031-24h-15.4375v-17.921875c-6.960938-5.679687-15.121094-9.757813-24-12v29.921875h-24v-32h-24v19.519531c2.640625 4 5.121094 8.320313 6.71875 12.480469 3.679688 9.121094 3.359375 17.601562-6.71875 21.601562v26.398438h-22.480469c-6.960937 12.160156-19.199219 20.878906-33.519531 23.28125zm80-23.28125v-24h24v24zm0 0" fill="#666"/><g fill="#fff"><path d="m320 480h-48v-16h48c17.648438 0 32-14.355469 32-32h16c0 26.46875-21.53125 48-48 48zm0 0"/><path d="m352 400h16v16h-16zm0 0"/><path d="m168 152h-16v-52.222656c0-25.117188 13.953125-47.699219 36.421875-58.933594l7.15625 14.3125c-17.007813 8.503906-27.578125 25.601562-27.578125 44.621094zm0 0"/><path d="m204.414062 32.84375 16-7.996094 7.15625 14.308594-16 8zm0 0"/><path d="m40 400h-16c0-30.878906 25.125-56 56-56v16c-22.054688 0-40 17.945312-40 40zm0 0"/><path d="m96 344h16v16h-16zm0 0"/><path d="m424 320v-16c8.820312 0 16-7.175781 16-16h16c0 17.644531-14.351562 32-32 32zm0 0"/><path d="m189.65625 373.65625-11.3125-11.3125 7.03125-7.03125c12.460938-12.453125 29.015625-19.3125 46.625-19.3125v16c-13.335938 0-25.875 5.195312-35.3125 14.625zm0 0"/><path d="m154.339844 394.34375 16-16 11.3125 11.308594-16 16.003906zm0 0"/></g><path d="m272 12c0-6.628906-7.164062-12-16-12s-16 5.371094-16 12 7.164062 12 16 12 16-5.371094 16-12zm0 0" fill="#f40e34"/><path d="m280 308c0 6.628906-5.371094 12-12 12s-12-5.371094-12-12 5.371094-12 12-12 12 5.371094 12 12zm0 0" fill="#fff"/><path d="m333.71875 237.355469c-11.9375-3.554688-24.625-5.355469-37.71875-5.355469v-16c14.640625 0 28.867188 2.027344 42.28125 6.019531zm0 0" fill="#fff"/><path d="m355.585938 246.671875c-.054688-.035156-5.171876-3.363281-14.382813-6.804687l5.59375-14.992188c11.109375 4.148438 17.382813 8.296875 17.640625 8.46875zm0 0" fill="#fff"/><path d="m512 416c0-25.679688-10-49.761719-28.082031-67.917969-9.757813-9.761719-21.277344-17.121093-33.839844-21.921875 4-2.480468 7.761719-5.519531 11.203125-8.878906 12.078125-12.082031 18.71875-28.160156 18.71875-45.28125 0-4.398438-3.601562-7.996094-8-7.996094h-40.878906c.160156-.164062.320312-.242187.480468-.402344 10.558594-10.558593 16.398438-24.558593 16.398438-39.601562 0-4.398438-3.601562-7.996094-8-7.996094h-40v-150.644531c0-18.640625-12.640625-34.640625-30.796875-38.960937l-100.722656-23.757813c-8.242188-1.839844-16.878907-1.839844-25.042969 0l-100.160156 23.917969c-18.398438 4.160156-31.277344 20.242187-31.277344 39.121094v150.320312h-40c-4.398438 0-8 3.601562-8 8 0 17.679688 4.878906 33.039062 14.160156 44.558594.960938 1.199218 2 2.320312 3.039063 3.441406h-41.199219c-4.398438 0-8 3.601562-8 8 0 15.039062 5.839844 29.117188 16.398438 39.519531 2.402343 2.398438 4.960937 4.558594 7.601562 6.480469-32.71875 12.800781-56 44.71875-56 82v48c0 .558594.238281 1.121094.398438 1.679688-.238282 2.078124-.398438 4.160156-.398438 6.320312v40c0 4.402344 3.601562 8 8 8h496c4.398438 0 8-3.601562 8-8v-40c0-2.078125-.242188-4.160156-.402344-6.160156.160156-.640625.402344-1.199219.402344-1.839844zm-112-184h31.199219c-1.519531 7.679688-5.28125 14.640625-10.878907 20.238281-.082031 0-.082031 0-.082031.082031-5.597656 5.597657-12.558593 9.359376-20.238281 10.878907zm-272-166.320312c0-11.359376 7.757812-20.960938 18.878906-23.519532l100.160156-24c2.800782-.640625 5.761719-.878906 8.71875-.878906 3.039063 0 6.160157.320312 9.121094.957031l100.640625 23.683594c10.878907 2.636719 18.480469 12.238281 18.480469 23.4375v141.121094c-4.320312-.640625-8.480469-1.199219-12.800781-1.839844-5.28125-.800781-10.5625-1.601563-15.839844-2.320313-5.601563-.71875-11.121094-1.277343-16.722656-1.917968-5.359375-.5625-10.71875-1.203125-16.078125-1.679688-5.441406-.480468-10.882813-.800781-16.320313-1.203125-5.359375-.398437-10.71875-.800781-16.082031-1.039062-5.4375-.238281-10.957031-.320313-16.398438-.480469-5.28125-.078125-10.480468-.320312-15.679687-.320312-5.839844 0-11.679687.160156-17.441406.320312-4.878907.082031-9.757813.082031-14.71875.320312-6.640625.242188-13.359375.800782-20 1.28125-4.160157.242188-8.238281.402344-12.398438.71875-10.800781.960938-21.679687 2.082032-32.722656 3.519532-1.679687.164062-3.441406.480468-5.121094.722656-9.199219 1.199219-18.320312 2.480469-27.679687 4v-140.882812zm0 157.121093 1.039062-.160156c11.199219-1.921875 22.160157-3.519531 33.039063-4.882813 4.882813-.636718 9.601563-1.039062 14.480469-1.519531 6-.640625 12-1.359375 17.921875-1.917969 5.519531-.480468 10.957031-.722656 16.398437-1.042968 5.199219-.320313 10.398438-.71875 15.597656-.960938 5.601563-.238281 11.203126-.238281 16.882813-.398437 4.957031-.078125 9.917969-.238281 14.878906-.238281 5.601563 0 11.277344.238281 16.960938.398437 4.878906.078125 9.839843.160156 14.71875.402344 5.601562.238281 11.28125.71875 16.878906 1.117187 5.042969.320313 10.082031.640625 15.121094 1.121094 5.4375.480469 11.039062 1.121094 16.558593 1.757812 5.28125.5625 10.480469 1.121094 15.839844 1.84375 5.28125.71875 10.640625 1.597657 16 2.398438 4.5625.640625 9.121094 1.359375 13.683594 2.160156v6.71875c0 7.519532-3.359375 14.402344-9.28125 18.960938-1.519531 1.121094-3.121094 2.078125-4.71875 2.878906-.082031 0-.082031 0-.160156 0-4.960938 2.238281-10.480469 2.800781-15.921875 1.359375-1.4375-.398437-2.800781-.800781-4.082031-1.4375l-24.15625-11.363281c-18.082032-8.558594-35.359376-13.519532-52.882813-15.28125-9.4375-1.039063-19.199219-.957032-29.039063.082031-1.601562.160156-3.199218.238281-4.796874.480469-14.640626 2-29.761719 6.398437-45.121094 13.199218l-32.160156 14.238282c-1.121094.480468-2.320313.882812-3.761719 1.28125-7.121094 1.921875-14.558594.402344-20.480469-4.160156-6-4.558594-9.4375-11.519532-9.4375-19.117188zm240 57.199219c-2.800781 0-5.4375.480469-8 1.121094v-11.519532h.160156c.242188 0 .558594-.082031.882813-.082031 1.519531 0 3.039062-.160156 4.558593-.320312.480469-.078125.960938-.15625 1.441407-.238281 1.839843-.320313 3.679687-.71875 5.4375-1.359376.160156-.082031.320312-.082031.480469-.160156 1.679687-.5625 3.28125-1.28125 4.800781-2.082031.480469-.238281.960937-.480469 1.441406-.71875 1.4375-.800781 2.796875-1.601563 4.078125-2.5625.238281-.160156.480469-.320313.71875-.476563v22.878907c-4.71875-2.800781-10.160156-4.480469-16-4.480469zm16 32c0 8.800781-7.199219 16-16 16-.800781 0-1.523438-.078125-2.242188-.160156-.636718-.078125-1.359374-.242188-2-.480469-.640624-.160156-1.277343-.398437-1.917968-.640625 0 0 0 .082031-.082032 0-5.679687-2.398438-9.757812-8.160156-9.757812-14.71875s4.078125-12.320312 9.757812-14.71875c.082032-.082031.082032 0 .082032 0 .640625-.242188 1.277344-.480469 1.917968-.640625.640626-.242187 1.359376-.402344 2-.480469.71875-.082031 1.441407-.160156 2.242188-.160156 8.800781 0 16 7.199219 16 16zm-40 20.960938v15.757812l-20.480469-20.558594c-5.277343-5.28125-12.320312-8.160156-19.839843-8.160156h-1.121094c.882812-2.480469 1.441406-5.199219 1.441406-8 0-6.480469-2.558594-12.5625-6.960938-16.878906-4.480468-4.5625-10.558593-7.121094-17.039062-7.121094v-46.082031c12.71875 2.160156 25.519531 6.242187 38.800781 12.480469l24.160157 11.363281c.316406.160156.71875.320312 1.039062.476562v24.800781c-4.878906 5.679688-8 12.882813-8 20.960938s3.121094 15.28125 8 20.960938zm-134.558594-12.960938h-1.121094c-7.519531 0-14.5625 2.878906-19.839843 8.160156l-20.480469 20.558594v-15.757812c4.878906-5.683594 8-12.882813 8-20.960938 0-8.082031-3.121094-15.28125-8-20.960938v-23.597656c.078125-.082031.160156-.082031.238281-.160156l32.082031-14.242188c10.957032-4.800781 21.359376-8.160156 31.679688-10.320312v45.28125c-13.203125 0-24 10.800781-24 24 0 2.800781.558594 5.4375 1.441406 8zm22.558594-16h8c4.398438 0 8-3.601562 8-8v-55.601562c.160156 0 .238281 0 .398438-.078126 1.839843-.078124 3.601562-.160156 5.441406-.238281.800781 0 1.597656-.082031 2.320312-.082031 2.636719-.078125 5.199219-.078125 7.757813.082031h.082031v55.917969c0 4.402344 3.597656 8 7.996094 8h8c2.160156 0 4.082031.800781 5.683594 2.480469 1.519531 1.441406 2.320312 3.359375 2.320312 5.519531 0 4.402344-3.601562 8-8 8h-48c-2.160156 0-4.082031-.800781-5.683594-2.480469-1.519531-1.4375-2.316406-3.359375-2.316406-5.519531 0-4.402344 3.601562-8 8-8zm-104-41.199219c.640625.480469 1.4375.878907 2.078125 1.28125 6.640625 4.398438 14.082031 6.71875 21.679687 6.71875h.242188v10.320313c-2.5625-.640625-5.199219-1.121094-8-1.121094-5.839844 0-11.28125 1.679688-16 4.480469zm16 33.199219c.800781 0 1.519531.078125 2.238281.160156.640625.078125 1.363281.238282 2.003907.476563.636718.160156 1.277343.402343 1.917968.640625h.078125c5.679688 2.402344 9.761719 8.160156 9.761719 14.722656 0 6.558594-4.082031 12.320312-9.761719 14.71875h-.078125c-.640625.238281-1.28125.480469-1.917968.640625-.640626.238281-1.363282.398437-2.003907.480469-.71875.078125-1.4375.160156-2.238281.160156-8.800781 0-16-7.203125-16-16 0-8.800781 7.199219-16 16-16zm-63.601562-64h31.601562v39.277344c-8.640625-1.597656-16-5.917969-21.359375-12.71875-5.519531-6.800782-9.039063-16.078125-10.242187-26.558594zm-64.398438 176c0-39.679688 32.320312-72 72-72 4.402344 0 8-3.601562 8-8s-3.601562-8-8-8c-10.71875 0-20.71875-4.160156-28.320312-11.761719-5.597657-5.597656-9.359376-12.558593-10.878907-20.238281h63.199219v104h-40c-2.558594 0-5.121094.15625-7.601562.398438-.796876.160156-1.597657.242187-2.398438.402343-1.679688.238281-3.441406.480469-5.121094.878907-.878906.160156-1.679687.402343-2.558594.558593-1.601562.402344-3.199218.882813-4.800781 1.441407-.796875.238281-1.597656.480468-2.320312.800781-1.917969.71875-3.839844 1.519531-5.679688 2.320312-.398437.160157-.71875.320313-1.121093.480469-2.160157 1.117188-4.238282 2.238281-6.320313 3.519531-.558594.398438-1.117187.800781-1.757813 1.199219-1.441406.960938-2.878906 1.917969-4.242187 2.960938-.640625.558593-1.28125 1.121093-2 1.679687-1.199219.960937-2.398437 2.078125-3.601563 3.199219-.636718.558594-1.199218 1.121094-1.839843 1.761718-1.277344 1.277344-2.480469 2.636719-3.679688 4.078126-.320312.320312-.640625.640624-.960937 1.039062v-10.71875zm0 88v-32c0-2.398438.160156-4.71875.402344-7.039062 3.519531-27.921876 27.359375-48.960938 55.597656-48.960938h30.320312c-.078124.160156-.238281.402344-.398437.558594-.882813 1.203125-1.839844 2.480468-2.71875 3.761718-.164063.160157-.242187.320313-.324219.398438-.957031 1.441406-1.917968 2.882812-2.878906 4.402344-.320312.398437-.558594.878906-.796875 1.277344-.800781 1.28125-1.523437 2.5625-2.242187 3.921874-.160157.320313-.320313.558594-.480469.960938-.796875 1.519531-1.519531 3.117188-2.238281 4.71875-.160157.398438-.242188.800781-.402344 1.199219-.476563 1.28125-.957032 2.640625-1.359375 3.921875-.078125.398437-.238281.796875-.320313 1.199218-.398437 1.597657-.71875 3.277344-.878906 4.800782v.796875c-.078125 1.363281-.078125 2.640625.078125 4 0 .402343.082031.800781.164063 1.199219.160156 1.519531.558593 3.042968 1.117187 4.480468 3.359375 8.082032 11.363281 12.71875 23.839844 14.082032.480469 2.957031 1.121093 5.757812 2 8.558593.082031.320313.082031.558594.160156.800781.882813 2.640626 1.921875 5.199219 3.199219 7.679688.160156.320312.320312.71875.480468 1.042969 1.28125 2.398437 2.640626 4.636719 4.242188 6.796875.238281.320312.476562.722656.71875 1.039062 1.601562 2.082032 3.359375 4.082032 5.199219 6 .160156.082032.238281.242188.398437.402344zm328 0h-176c-22.082031 0-40-17.921875-40-40 0-4.402344-3.601562-8-8-8-10.800781 0-15.679688-2.320312-16.558594-4.5625-2.71875-6.398438 9.519532-25.039062 22.238282-37.757812v-.078126c.640624-.640624 1.121093-1.441406 1.519531-2.242187.082031-.078125.160156-.160156.160156-.320313.082031-.160156.082031-.320312.160156-.480468.160157-.640625.320313-1.359375.402344-2.078125 0-.160157.078125-.320313.078125-.480469v-60.480469c4.71875 2.800781 10.160156 4.480469 16 4.480469 2.800781 0 5.441406-.480469 8-1.121094v25.121094c0 3.199219 1.921875 6.160156 4.960938 7.359375 2.960937 1.277344 6.398437.558594 8.71875-1.679687l34.160156-34.160157c2.242187-2.242187 5.28125-3.519531 8.480468-3.519531h95.359376c3.199218 0 6.242187 1.277344 8.480468 3.519531l34.160156 34.160157c.71875.640624 1.519532 1.117187 2.398438 1.519531.242188.160156.480469.238281.800781.320312.640625.242188 1.28125.320313 2 .402344.160157 0 .320313.078125.480469.078125.078125 0 .160156-.078125.320312-.078125.878907 0 1.839844-.160156 2.71875-.5625 3.039063-1.199219 4.960938-4.160156 4.960938-7.359375v-25.117188c2.558594.640626 5.199219 1.117188 8 1.117188 5.839844 0 11.277344-1.679688 16-4.476562v60.480468c0 .15625.078125.316406.078125.476563.082031.722656.160156 1.441406.402344 2.082031.078125.160156.078125.320312.160156.480469 0 .160156.078125.238281.160156.320312.398438.796875.878907 1.597657 1.519531 2.238281v.082032c12.71875 12.636718 24.957032 31.277344 22.238282 37.757812-.878906 2.238282-5.757813 4.5625-16.558594 4.5625-4.398438 0-8 3.597656-8 7.996094 0 10.722656-4.160156 20.722656-11.757812 28.320312-7.523438 7.519532-17.523438 11.679688-28.242188 11.679688zm152 0h-112.878906c.160156-.160156.320312-.242188.398437-.402344 8.800781-8.71875 14.320313-19.839844 16-31.917968 12.480469-1.359376 20.480469-6 23.839844-14.078126.5625-1.441406.960937-2.960937 1.121094-4.480468.078125-.402344.160156-.800782.160156-1.199219.160156-1.363281.160156-2.640625.082031-4v-.800781c-.164062-1.519532-.480468-3.199219-.882812-4.800782-.078125-.398437-.238282-.800781-.320313-1.199218-.398437-1.28125-.796875-2.640625-1.359375-3.921875-.160156-.398438-.238281-.796875-.398437-1.199219-.722657-1.597656-1.441407-3.199219-2.242188-4.71875-.160156-.402344-.316406-.640625-.476562-.960938-.722657-1.359374-1.441407-2.640624-2.242188-3.917968-.238281-.402344-.480469-.882813-.800781-1.28125-.957031-1.519532-1.917969-2.960938-2.878906-4.398438-.078125-.082031-.160156-.242187-.320313-.402344-.878906-1.277343-1.839843-2.558593-2.71875-3.757812-.160156-.160156-.320312-.402344-.402343-.5625h30.320312c5.28125 0 10.402344.722656 15.28125 2.160156 2.398438.640625 4.640625 1.523438 6.800781 2.480469 13.199219 5.601563 23.839844 16.160156 29.519531 29.441406 2 4.640625 3.359376 9.679688 4 14.878907.238282 2.320312.398438 4.640624.398438 7.042968zm0-77.28125c-.320312-.320312-.640625-.636719-.878906-1.039062-1.203125-1.359376-2.480469-2.800782-3.761719-4.160157-.640625-.558593-1.199219-1.121093-1.839844-1.679687-1.121093-1.121094-2.398437-2.238282-3.679687-3.28125-.640625-.476563-1.28125-1.039063-1.921875-1.519532-1.359375-1.121093-2.796875-2.078124-4.316407-3.039062-.5625-.402344-1.121093-.800781-1.679687-1.199219-2.082031-1.28125-4.160156-2.402343-6.320313-3.519531-.402343-.160156-.722656-.242188-1.039062-.402344-1.921875-.878906-3.761719-1.679687-5.761719-2.398437-.71875-.320313-1.519531-.558594-2.320312-.800781-1.601563-.558594-3.199219-1.039063-4.800781-1.441407-.878907-.15625-1.679688-.398437-2.558594-.558593-1.679688-.398438-3.441406-.640626-5.121094-.878907-.796875-.160156-1.597656-.242187-2.398438-.402343-2.480468-.238282-5.039062-.398438-7.601562-.398438h-40v-112h63.359375c-1.679687 9.757812-6.238281 18.800781-13.4375 25.917969-9.042969 9.121093-21.121094 14.078125-33.921875 14.078125-4.398438 0-8 3.601562-8 8 0 4.398437 3.601562 8 8 8 21.359375 0 41.519531 8.320312 56.558594 23.441406 15.121094 15.039062 23.441406 35.199219 23.441406 56.558594zm0 0"/><path d="m256 408.535156c16.53125 0 33.070312-6.292968 45.65625-18.878906 2.289062-2.285156 2.976562-5.726562 1.734375-8.71875-1.234375-2.988281-4.15625-4.9375-7.390625-4.9375h-8c-4.414062 0-8-3.589844-8-8 0-4.417969-3.578125-8-8-8h-32c-4.421875 0-8 3.582031-8 8 0 4.410156-3.585938 8-8 8h-8c-3.234375 0-6.15625 1.949219-7.390625 4.9375-1.242187 2.992188-.554687 6.433594 1.734375 8.71875 12.585938 12.585938 29.125 18.878906 45.65625 18.878906zm-9.367188-32.535156h18.734376c1.859374 5.226562 5.476562 9.625 10.132812 12.480469-12.390625 5.414062-26.609375 5.414062-39 0 4.65625-2.855469 8.273438-7.253907 10.132812-12.480469zm0 0"/></svg>