<?xml version="1.0"?>
<svg xmlns="http://www.w3.org/2000/svg" viewBox="0 0 512 512" width="512" height="512"><g id="Outline"><rect x="48" y="104" width="16" height="16"/><rect x="80" y="104" width="16" height="16"/><rect x="112" y="104" width="16" height="16"/><path d="M168,168a32,32,0,1,0,32,32A32.036,32.036,0,0,0,168,168Zm0,48a16,16,0,1,1,16-16A16.019,16.019,0,0,1,168,216Z"/><path d="M447.928,298.16l-48.466-6.9L384,283.159V250.438c.8-.576,1.578-1.162,2.325-1.764A72.119,72.119,0,0,0,411.831,209.5a134.2,134.2,0,0,0,3.931-25.5H416a32,32,0,0,0,8.712-62.785A31.86,31.86,0,0,0,424,102.607V72a56,56,0,0,0-56-56H304a56,56,0,0,0-56,56H48a32.036,32.036,0,0,0-32,32V320a32.036,32.036,0,0,0,32,32h84.9l-10.667,32H112a24.114,24.114,0,0,0-24,24,24.027,24.027,0,0,0,24,24h64v56h16V416h48v72h16V376H240v24H192V353.6A40.284,40.284,0,0,1,226.319,314l42.242-5.967,11.577,61.447A8,8,0,0,0,288,376c2.833,0,7.178-2.645,7.178-2.645L328,356.944V424h16V356.944l36.422,18.211a8,8,0,0,0,11.44-5.674l11.586-61.494,42.2,6.009A40.293,40.293,0,0,1,480,353.6V400H432V376H416V488h16V416h48v72h16V353.6A56.385,56.385,0,0,0,447.928,298.16ZM336,330.236l-32-44.8V259.113c1.888.724,3.8,1.373,5.747,1.924A69.545,69.545,0,0,0,330,264h12a71.563,71.563,0,0,0,26-4.869v26.305Zm60.324-124.677a56.054,56.054,0,0,1-19.86,30.514l-.137.109a41.957,41.957,0,0,1-4.487,3.145c-.047.028-.093.057-.139.086A55.154,55.154,0,0,1,342,248H330a53.554,53.554,0,0,1-15.663-2.291l-.167-.049a52.7,52.7,0,0,1-13.926-6.281,55.441,55.441,0,0,1-24.574-33.842A119.266,119.266,0,0,1,272,176V144.615a32.557,32.557,0,0,0,11.811.195l4.89-.816a12,12,0,1,0,20.714-3.414,183.523,183.523,0,0,1,53.17,0A12.006,12.006,0,1,0,383.3,144c.669,1.881,14.186,1.112,16.764.644C399.676,155.045,400,165.567,400,176A119.292,119.292,0,0,1,396.324,205.559ZM244.7,163.3A15.983,15.983,0,0,1,255.92,136l.08.082V168A16.105,16.105,0,0,1,244.7,163.3ZM211.61,232.3l7.3,7.3L207.6,250.911l-7.3-7.3a8,8,0,0,0-9.468-1.377,47.668,47.668,0,0,1-9.112,3.75A8,8,0,0,0,176,253.65V264H160V253.65a8,8,0,0,0-5.716-7.667,47.668,47.668,0,0,1-9.112-3.75,8.005,8.005,0,0,0-9.468,1.377l-7.3,7.3L117.088,239.6l7.3-7.3a8,8,0,0,0,1.377-9.468,47.7,47.7,0,0,1-3.75-9.111A8,8,0,0,0,114.35,208H104V192h10.35a8,8,0,0,0,7.667-5.716,47.722,47.722,0,0,1,3.75-9.112,8,8,0,0,0-1.377-9.469l-7.3-7.3L128.4,149.088l7.3,7.3a8,8,0,0,0,9.468,1.376,47.7,47.7,0,0,1,9.11-3.748A8,8,0,0,0,160,146.35V136h16v10.35a8,8,0,0,0,5.718,7.668,47.7,47.7,0,0,1,9.11,3.748,8,8,0,0,0,9.468-1.376l7.3-7.3L218.912,160.4l-7.3,7.3a8,8,0,0,0-1.377,9.469,47.722,47.722,0,0,1,3.75,9.112A8,8,0,0,0,221.65,192H232v16H221.65a8,8,0,0,0-7.667,5.716,47.7,47.7,0,0,1-3.75,9.111A8,8,0,0,0,211.61,232.3ZM227.326,176q-.2-.492-.4-.981l3.644-3.644a31.719,31.719,0,0,0,2.817,3.241c.48.48.979.937,1.488,1.384Zm178.819-52.812a16.051,16.051,0,0,1-15.325,5.838l-21.94-3.657a199.53,199.53,0,0,0-65.76,0l-21.94,3.656A16.277,16.277,0,0,1,262.275,112h147.45A16.063,16.063,0,0,1,406.145,123.188ZM432,152a16.035,16.035,0,0,1-16,16V136.1c.032-.032.066-.06.1-.092A16.015,16.015,0,0,1,432,152ZM264,72a40,40,0,0,1,40-40h64a40,40,0,0,1,40,40V96H264ZM149.766,352h26.271c-.015.533-.037,1.064-.037,1.6V384H139.1ZM112,416a8.009,8.009,0,0,1-8-8,7.656,7.656,0,0,1,2.3-5.546c.053-.051.105-.1.156-.155A7.655,7.655,0,0,1,112,400h64v16Zm66.887-80H48a16.019,16.019,0,0,1-16-16v-8H194.69A56.7,56.7,0,0,0,178.887,336Zm93.5-44.665L239.367,296H32V104A16.019,16.019,0,0,1,48,88H248v14.607a31.86,31.86,0,0,0-.712,18.608A32.117,32.117,0,0,0,225.04,143.9l-11.785-11.786a8,8,0,0,0-11.314,0l-8.96,8.96q-.487-.206-.981-.4V128a8,8,0,0,0-8-8H152a8,8,0,0,0-8,8v12.674q-.494.2-.981.4l-8.96-8.96a8,8,0,0,0-11.314,0l-22.627,22.628a8,8,0,0,0,0,11.315l8.96,8.959q-.206.489-.4.981H96a8,8,0,0,0-8,8v32a8,8,0,0,0,8,8h12.675q.2.492.4.98l-8.96,8.96a8,8,0,0,0,0,11.315l22.627,22.627a8,8,0,0,0,11.314,0l8.96-8.959c.325.137.652.27.981.4V272a8,8,0,0,0,8,8h32a8,8,0,0,0,8-8V259.325c.329-.132.656-.265.981-.4l8.96,8.959a8,8,0,0,0,11.314,0l22.627-22.627a8,8,0,0,0,0-11.314l-8.96-8.961q.206-.487.4-.98H240a8,8,0,0,0,8-8V184a8.065,8.065,0,0,0-.078-1.061A31.688,31.688,0,0,0,256,184h.238a133.907,133.907,0,0,0,3.916,25.442A71.2,71.2,0,0,0,288,250.411v32.748Zm21.509,64.77-9.942-52.766,9.582-5.02,30.508,42.712Zm84.2,0-30.148-15.074,30.508-42.712,9.582,5.02Z"/><path d="M323.247,190.534H312v16h11.247a112.566,112.566,0,0,0,39.6-6.857l-5.69-14.953A96.487,96.487,0,0,1,323.247,190.534Z"/><rect x="312" y="64" width="48" height="16"/><rect x="304" y="384" width="16" height="16"/></g></svg>
