<svg id="Capa_1" enable-background="new 0 0 501 501" height="512" viewBox="0 0 501 501" width="512" xmlns="http://www.w3.org/2000/svg"><path d="m5.5 256c0-135.309 109.69-245 244.999-245 135.121 0 245.199 110.247 245.001 245.368-.097 66.143-26.404 126.14-69.092 170.165-2.413 2.488-6.163 3.137-9.271 1.603-48.249-23.812-105.388-37.59-166.637-37.59-61.273 0-118.432 13.788-166.693 37.618-3.079 1.52-6.79.869-9.18-1.595-42.787-44.11-69.127-104.263-69.127-170.569z" fill="#7ecd00"/><path d="m355.743 54.043c-1.972 2.146-4.666 3.235-7.368 3.235-2.417 0-4.841-.871-6.762-2.635-49.692-45.642-131.507-46.294-182.379-1.454-4.143 3.65-10.463 3.252-14.114-.89-3.651-4.143-3.254-10.462.89-14.114 27.968-24.652 64.74-38.185 103.673-38.185.456 0 .909.002 1.366.005 39.455.321 76.423 14.494 104.094 39.908 4.067 3.736 4.336 10.063.6 14.13zm-65.224 42.833c-22.181-20.371-58.68-20.682-81.36-.689-4.144 3.652-4.541 9.971-.89 14.114 3.651 4.142 9.972 4.54 14.114.89 15.238-13.432 39.735-13.245 54.606.416 1.921 1.764 4.345 2.635 6.762 2.635 2.702 0 5.396-1.089 7.368-3.235 3.735-4.069 3.467-10.395-.6-14.131zm32.311-28.481c-19.236-17.668-44.914-27.521-72.303-27.743-27.351-.192-53.277 9.201-72.943 26.535-4.144 3.652-4.541 9.972-.89 14.114s9.972 4.541 14.114.89c33.054-29.136 86.21-28.718 118.492.935 1.921 1.764 4.345 2.635 6.762 2.635 2.702 0 5.396-1.089 7.368-3.235 3.736-4.069 3.467-10.395-.6-14.131z" fill="#cff09a"/><path d="m200.5 180h30v60h-30zm70 0v60h30v-60z" fill="#5a9001"/><path d="m426.5 426.438c-44.537 45.98-106.93 74.562-176 74.562s-131.463-28.582-176-74.563v-44.13c0-20.169 10.134-38.989 26.972-50.092l37.055-24.432c16.839-11.103 26.972-29.922 26.972-50.092v-37.691h170v37.692c0 20.169 10.134 38.989 26.972 50.092l37.055 24.432c16.839 11.103 26.972 29.922 26.972 50.092v44.13z" fill="#fd4343"/><path d="m165.5 220h42.609v40.292c0 21.56-10.833 41.678-28.833 53.546l-39.611 26.117c-18 11.868-28.833 31.986-28.833 53.546v63.816c-13.099-9.104-25.267-19.455-36.333-30.88v-44.13c0-20.169 10.134-38.989 26.972-50.092l37.055-24.432c16.839-11.103 26.972-29.922 26.972-50.092v-37.691z" fill="#d73131"/><path d="m166.291 269.742c-36.904 1.528-73.732 4.06-110.382 7.598v-48.558c0-39.476 28.795-73.051 67.81-79.066 84.024-12.954 169.537-12.954 253.56 0 39.015 6.015 67.81 39.59 67.81 79.066v48.558c-36.65-3.538-73.478-6.07-110.382-7.598-2.217-34.168-13.865-61.795-29.096-67.197-36.526-12.954-73.7-12.954-110.226 0-15.229 5.402-26.877 33.029-29.094 67.197z" fill="#fd4343"/><path d="m369.145 266.667h-34.663c-2.697-32.74-14.098-58.882-28.87-64.121-36.526-12.954-73.699-12.954-110.226 0-14.771 5.239-26.172 31.381-28.87 64.121h-34.663c3.543-47.005 19.772-84.726 40.875-92.21 51.543-18.279 103.999-18.279 155.541 0 21.105 7.483 37.334 45.204 40.876 92.21z" fill="#e84444"/><path d="m55.909 264.17h110.832l.015 13.667c0 11.045-8.954 20-20 20h-70.847c-11.046 0-20-8.955-20-20zm278.35 0-.016 13.667c0 11.045 8.954 20 20 20h70.848c11.046 0 20-8.955 20-20v-13.667z" fill="#a62b2b"/><path d="m350.5 370c0 55.228-44.772 100-100 100s-100-44.772-100-100 44.772-100 100-100 100 44.772 100 100z" fill="#ececf1"/><path d="m331.355 428.855c-18.185 24.939-47.627 41.145-80.855 41.145-55.229 0-100-44.771-100-100 0-33.228 16.206-62.67 41.145-80.854-12.04 16.512-19.145 36.853-19.145 58.854 0 55.229 44.771 100 100 100 22.001 0 42.342-7.105 58.855-19.145z" fill="#d3d3d8"/><path d="m265.5 295c0 8.284-6.716 15-15 15s-15-6.716-15-15 6.716-15 15-15 15 6.716 15 15zm-15 135c-8.284 0-15 6.716-15 15s6.716 15 15 15 15-6.716 15-15-6.716-15-15-15zm-90-60c0 8.284 6.716 15 15 15s15-6.716 15-15-6.716-15-15-15-15 6.716-15 15zm150 0c0 8.284 6.716 15 15 15s15-6.716 15-15-6.716-15-15-15-15 6.716-15 15zm-123.64-63.64c-5.858 5.858-5.858 15.355 0 21.213s15.355 5.858 21.213 0 5.858-15.355 0-21.213c-5.857-5.857-15.355-5.857-21.213 0zm106.066 106.066c-5.858 5.858-5.858 15.355 0 21.213s15.355 5.858 21.213 0 5.858-15.355 0-21.213c-5.857-5.857-15.355-5.857-21.213 0zm-106.066 21.214c5.858 5.858 15.355 5.858 21.213 0s5.858-15.355 0-21.213-15.355-5.858-21.213 0c-5.857 5.857-5.857 15.355 0 21.213zm106.066-106.066c5.858 5.858 15.355 5.858 21.213 0s5.858-15.355 0-21.213-15.355-5.858-21.213 0c-5.857 5.857-5.857 15.355 0 21.213z" fill="#babac0"/><path d="m280.5 370c0 16.569-13.431 30-30 30s-30-13.431-30-30 13.431-30 30-30 30 13.431 30 30z" fill="#fff5f5"/></svg>