<svg height="512" viewBox="0 0 512 512" width="512" xmlns="http://www.w3.org/2000/svg"><g id="Filled_outline" data-name="Filled outline"><path d="m445.608 323.013-93.608-11.013v-72h-96v72l-74.369 12.4c-1.923.32-3.757.935-5.631 1.425v170.175h312v-125.316a48 48 0 0 0 -42.392-47.671z" fill="#fec9a3"/><path d="m304 312a71.644 71.644 0 0 0 48-18.442v-53.558h-96v53.558a71.644 71.644 0 0 0 48 18.442z" fill="#feb784"/><path d="m488 370.68v69.32h-56v56h-256v-56l-19.48 19.48-15.02 18.02c-11.5 10-19.5 10.5-30.18 10.5h-7.06a40.259 40.259 0 0 1 -29.58-67.57l23.1-25.03 47.35-51.29a64.03 64.03 0 0 1 36.5-19.72l74.37-12.39 48 112 48-112 93.61 11.01a48.02 48.02 0 0 1 42.39 47.67z" fill="#49648e"/><path d="m432 440h56v56h-56z" fill="#fec9a3"/><path d="m488 370.68v69.32h-56v56h-218.39c84.83-19.24 197.28-63.88 250.6-166.76a47.967 47.967 0 0 1 23.79 41.44z" fill="#425b82"/><path d="m352 312-48 112-48-112-48 8v176h192v-178.353z" fill="#d0d24b"/><path d="m208 496v-176l-26.369 4.4c-1.923.32-3.757.935-5.631 1.425v170.175" fill="#ebebe9"/><path d="m432 496v-174.588l-32-3.765v178.353" fill="#ebebe9"/><path d="m176 416v24 56h32v-112z" fill="#e0e0de"/><path d="m400 416v24 56h32v-112z" fill="#e0e0de"/><path d="m167.081 444.015-22.835-98.949-46.462 50.334-23.107 25.034a40.259 40.259 0 0 0 29.582 67.566h7.065c10.676 0 18.676-.5 30.176-10.5l15.021-18.022 11.259-11.258a36.1 36.1 0 0 0 -.699-4.205z" fill="#425b82"/><path d="m384 168h-8v48h8a24 24 0 0 0 0-48z" fill="#feb784"/><path d="m224.4 168h-.4a24 24 0 0 0 0 48h8v-48z" fill="#feb784"/><path d="m376 160v56a72 72 0 1 1 -144 0v-56a72.009 72.009 0 0 1 69.65-71.96c.78-.03 1.56-.04 2.35-.04a72.006 72.006 0 0 1 72 72z" fill="#fec9a3"/><path d="m376 160v56a72.047 72.047 0 0 1 -85.62 70.71 87.992 87.992 0 0 0 48.62-78.71v-48a88.081 88.081 0 0 0 -37.35-71.96c.78-.03 1.56-.04 2.35-.04a72.006 72.006 0 0 1 72 72z" fill="#fec093"/><path d="m376 160a72.063 72.063 0 0 0 -1.846-16h-140.308a72.063 72.063 0 0 0 -1.846 16v18.855l72 5.145 72-5.143z" fill="#fec093"/><path d="m268 168a12 12 0 1 0 12 12 12.013 12.013 0 0 0 -12-12z" fill="#7a432a"/><path d="m340 168a12 12 0 1 0 12 12 12.013 12.013 0 0 0 -12-12z" fill="#7a432a"/><path d="m294.891 240h-14.891v-16h14.891c10.953 0 21.547-2.52 29.078-6.91l8.062 13.82c-10.054 5.867-23.242 9.09-37.14 9.09z" fill="#f7a468"/><path d="m392 123.9v28.1h-176v-28.1a83.909 83.909 0 0 1 83.9-83.9h8.2a83.922 83.922 0 0 1 83.9 83.9z" fill="#ffb531"/><path d="m392 123.9v28.1h-146.95c42.75-23.16 81.7-51.63 117.11-92.25a83.685 83.685 0 0 1 29.84 64.15z" fill="#ffa912"/><path d="m400.61 161.1-96.61 6.9-96.61-6.9a16.571 16.571 0 0 1 -15.39-16.529 16.571 16.571 0 0 1 16.571-16.571h190.858a16.571 16.571 0 0 1 16.571 16.571 16.571 16.571 0 0 1 -15.39 16.529z" fill="#ffb531"/><g fill="#ffcb73"><path d="m328 96h-48v-48a24 24 0 0 1 24-24 24 24 0 0 1 24 24z"/><path d="m256 104v-51.5a84.269 84.269 0 0 0 -16 12.706v38.794z"/><path d="m368 104v-38.792a84.269 84.269 0 0 0 -16-12.708v51.5z"/></g><path d="m331.429 360h-54.858l27.429 64z" fill="#49648e"/><path d="m208 440h96v32h-96z" fill="#ebebe9"/><path d="m304 440h96v32h-96z" fill="#ebebe9"/><path d="m336 400h64v40h-64z" fill="#b0b0ae"/><path d="m296 416h16v80h-16z" fill="#bec134"/><path d="m336.667 472h63.333v-32h-31.333z" fill="#e0e0de"/><path d="m352 440h48v-40h-8z" fill="#a3a3a1"/><path d="m116.09 496h-20.09a32 32 0 0 1 -32-32v-128h64l23.08 116.015a35.916 35.916 0 0 1 .92 8.075 35.911 35.911 0 0 1 -35.91 35.91z" fill="#fec093"/><path d="m128 456h-40v-200l-8-24v-56h56v56l-8 24z" fill="#95573a"/><path d="m24 80h176v112h-176z" fill="#d6d6d4"/><path d="m200 160h-40l-16 32h-64l-16-32h-40v-48h40l16-32h64l16 32h40z" fill="#e0e0de"/><rect fill="#fec9a3" height="80" rx="16" width="80" x="64" y="272"/><path d="m128 272h-32a16 16 0 0 1 16 16v48a16 16 0 0 1 -16 16h32a16 16 0 0 0 16-16v-48a16 16 0 0 0 -16-16z" fill="#fec093"/><path d="m80 192h56v16h-56z" fill="#82462a"/><path d="m432 440h56v24h-56z" fill="#feb784"/><path d="m446.534 315.1-86.534-10.209v-31.826a79.869 79.869 0 0 0 23.593-49.065h.407a31.985 31.985 0 0 0 21.546-55.638 24.562 24.562 0 0 0 -5.636-48.348 91.927 91.927 0 0 0 -66.416-84.423 32 32 0 0 0 -58.988 0 91.927 91.927 0 0 0 -66.416 84.423h-.09v-40.014a8 8 0 0 0 -8-8h-176a8 8 0 0 0 -8 8v112a8 8 0 0 0 8 8h48v32a8.027 8.027 0 0 0 .41 2.53l7.59 22.77v6.7a24.027 24.027 0 0 0 -24 24v168a40.045 40.045 0 0 0 40 40h20.08a43.3 43.3 0 0 0 31.02-12.9c3.26-3.261 20.9-23.783 20.9-23.783v36.683h16v-163.744l16-2.76v166.504h16v-16h80v16h16v-16h80v16h16v-169.339l16 1.887v167.452h16v-165.565l4.679.552a39.957 39.957 0 0 1 35.321 39.733v125.28h16v-125.28a55.95 55.95 0 0 0 -49.466-55.62zm-120.379 36.9h-44.31l-17.845-41.641v-25.121a79.729 79.729 0 0 0 80 0v25.117zm-174.155-24.235v-39.765a24.039 24.039 0 0 0 -16-22.624v-8.076l7.59-22.768a8.027 8.027 0 0 0 .41-2.532v-32h49.013a32.059 32.059 0 0 0 30.987 24h.407a79.851 79.851 0 0 0 23.593 49.067v32.156s-70.631 11.945-70.807 11.98a70.507 70.507 0 0 0 -25.193 10.562zm-56 32.235h24v88h-24zm112-168a16.018 16.018 0 0 1 16-16v32a16.019 16.019 0 0 1 -16-16zm-16-24v16h-35.056l8-16zm59.12 152.924 18.087 42.228 26.134 60.953.659 1.538v6.357h-80v-105.223zm37.58 47.076h30.6l-15.3 35.691zm79.3-152a64 64 0 0 1 -128 0v-44.551l18.448 1.317a11.994 11.994 0 1 0 20.052 1.434l24.933 1.78q.285.021.57.021t.57-.021l24.927-1.78a12 12 0 1 0 20.049-1.433l18.451-1.318zm16-8v-32a16 16 0 0 1 0 32zm24-63.427a8.6 8.6 0 0 1 -7.959 8.549l-96.041 6.857-96.041-6.859a8.571 8.571 0 0 1 .611-17.12h190.86a8.581 8.581 0 0 1 8.57 8.571zm-120-96.573a16 16 0 0 1 32 0v40h-32zm-48 29.267v26.733h16v-41.992a76.171 76.171 0 0 1 16-8.684v42.676a8 8 0 0 0 8 8h48a8 8 0 0 0 8-8v-42.676a76.154 76.154 0 0 1 16 8.685v41.991h16v-26.734a75.3 75.3 0 0 1 15.9 42.734h-159.8a75.3 75.3 0 0 1 15.9-42.733zm-48 26.733h-27.056l-8-16h35.056zm-52.944-16 13.789 27.578a8 8 0 0 0 7.155 4.422h32v6.446a24.463 24.463 0 0 0 -6.835 25.554h-25.165a8 8 0 0 0 -7.155 4.422l-13.789 27.578h-54.112l-13.789-27.578a8 8 0 0 0 -7.155-4.422h-32v-32h32a8 8 0 0 0 7.155-4.422l13.789-27.578zm-72 0-8 16h-27.056v-16zm-35.056 80h27.056l8 16h-35.056zm63.59 85.47-7.59-22.77v-30.7h40v30.7l-7.59 22.768a8.027 8.027 0 0 0 -.41 2.532v8h-24v-8a8.027 8.027 0 0 0 -.41-2.53zm-23.59 34.53a8.009 8.009 0 0 1 8-8h48a8.009 8.009 0 0 1 8 8v48a8.009 8.009 0 0 1 -8 8h-48a8.009 8.009 0 0 1 -8-8zm69.019 176.635a28.8 28.8 0 0 1 -5.27 7.183 27.433 27.433 0 0 1 -19.669 8.182h-20.08a24.028 24.028 0 0 1 -24-24v-97.376a23.889 23.889 0 0 0 8 1.376v96a8 8 0 0 0 8 8h40a8 8 0 0 0 8-8v-41.895l7.308 31.62a31 31 0 0 1 .692 6.355 27.672 27.672 0 0 1 -2.725 11.963c-.093.194-.175.392-.256.592zm18.443-19.41c-.146-.959-.311-1.92-.516-2.884-.009-.048-.02-.1-.031-.142l-18.72-81 10.772-11.654a56.363 56.363 0 0 1 17.033-12.519v99.66zm56.538 2.775h80v16h-80zm96 16v-16h80v16zm80-32h-40v-24h40zm0-40h-48a8 8 0 0 0 -8 8v32h-24v-6.357l.667-1.557 26.127-60.936 18.206-42.505 35 4.128z"/><path d="m294.891 224h-14.891v16h14.891c13.9 0 27.091-3.228 37.14-9.089l-8.062-13.821c-7.529 4.394-18.127 6.91-29.078 6.91z"/></g></svg>